<?xml version="1.0" encoding="UTF-8"?>
<svg version="1.1" xmlns="http://www.w3.org/2000/svg" width="64" height="64">
<path d="M0 0 C4.29 0 8.58 0 13 0 C13 3.63 13 7.26 13 11 C17.29 11 21.58 11 26 11 C26 12.65 26 14.3 26 16 C27.65 16 29.3 16 31 16 C31 18.31 31 20.62 31 23 C29.68 23 28.36 23 27 23 C27 25.64 27 28.28 27 31 C27.87011719 30.94779297 27.87011719 30.94779297 28.7578125 30.89453125 C33.97766318 30.71364534 37.54766899 30.96431976 42 34 C47.68004729 39.93823126 49.41835399 44.41944816 49.26171875 52.4921875 C48.7843775 57.06611407 47.2941417 60.7058583 44 64 C42.01315308 64.24050903 42.01315308 64.24050903 39.55029297 64.22705078 C38.62948944 64.22689972 37.70868591 64.22674866 36.75997925 64.22659302 C35.76410797 64.21627045 34.76823669 64.20594788 33.7421875 64.1953125 C32.72399933 64.1924826 31.70581116 64.18965271 30.6567688 64.18673706 C27.396061 64.1755177 24.13562516 64.15040996 20.875 64.125 C18.66797271 64.11497247 16.46094112 64.10584623 14.25390625 64.09765625 C8.83584428 64.07557268 3.41794157 64.04207795 -2 64 C-2.43279 59.60802563 -2.85980102 55.21553688 -3.28173828 50.82250977 C-3.4257044 49.33180018 -3.571179 47.84123539 -3.71826172 46.35083008 C-4.48657132 38.5553623 -5.21225632 30.84463995 -5 23 C-6.32 23 -7.64 23 -9 23 C-9 20.69 -9 18.38 -9 16 C-7.35 16 -5.7 16 -4 16 C-4 14.35 -4 12.7 -4 11 C0.29 11 4.58 11 9 11 C9 8.69 9 6.38 9 4 C6.36 4 3.72 4 1 4 C0.67 2.68 0.34 1.36 0 0 Z " fill="#E13E39" transform="translate(12,0)"/>
<path d="M0 0 C4.29 0 8.58 0 13 0 C13 3.63 13 7.26 13 11 C17.29 11 21.58 11 26 11 C26 12.65 26 14.3 26 16 C27.65 16 29.3 16 31 16 C31 18.31 31 20.62 31 23 C29.68 23 28.36 23 27 23 C26.92007813 23.57234375 26.84015625 24.1446875 26.7578125 24.734375 C25.75625097 27.72873422 24.1657435 29.09126545 21.875 31.25 C18.3880091 34.62185441 15.12910516 38.05948854 11.97265625 41.73828125 C9.38532015 44.70475174 6.72623658 47.60217747 4.0625 50.5 C3.56508301 51.04116455 3.06766602 51.5823291 2.55517578 52.13989258 C1.3708304 53.42725155 0.18551944 54.71372212 -1 56 C-3.42976677 53.57023323 -3.34513832 52.65920765 -3.6328125 49.30859375 C-3.71660156 48.36306641 -3.80039063 47.41753906 -3.88671875 46.44335938 C-3.96535156 45.45142578 -4.04398437 44.45949219 -4.125 43.4375 C-4.21136719 42.47263672 -4.29773438 41.50777344 -4.38671875 40.51367188 C-4.88524703 34.65398628 -5.08495286 28.8799517 -5 23 C-6.32 23 -7.64 23 -9 23 C-9 20.69 -9 18.38 -9 16 C-7.35 16 -5.7 16 -4 16 C-4 14.35 -4 12.7 -4 11 C0.29 11 4.58 11 9 11 C9 8.69 9 6.38 9 4 C6.36 4 3.72 4 1 4 C0.67 2.68 0.34 1.36 0 0 Z " fill="#E5E6E9" transform="translate(12,0)"/>
<path d="M0 0 C5.98535674 2.07185426 9.45070725 5.97519034 12.3125 11.5625 C13.04379828 14.15528482 13.15318051 16.31934116 13 19 C7.09774708 19.78696706 1.53857617 20.04615894 -4.421875 19.78125 C-5.44667969 19.73613281 -6.47148438 19.69101562 -7.52734375 19.64453125 C-8.59082031 19.59683594 -9.65429688 19.54914062 -10.75 19.5 C-11.82894531 19.45230469 -12.90789063 19.40460937 -14.01953125 19.35546875 C-16.6797232 19.23776114 -19.33987648 19.11924254 -22 19 C-22 17.68 -22 16.36 -22 15 C-21.34 15 -20.68 15 -20 15 C-20 13.989375 -20 12.97875 -20 11.9375 C-19.38207465 7.26978695 -16.41571138 5.22033988 -12.91015625 2.3828125 C-8.75751858 -0.62339145 -4.99101169 -0.4552612 0 0 Z " fill="#FEB26E" transform="translate(48,31)"/>
<path d="M0 0 C4.29 0 8.58 0 13 0 C13 3.63 13 7.26 13 11 C17.29 11 21.58 11 26 11 C26 12.65 26 14.3 26 16 C27.65 16 29.3 16 31 16 C31 18.31 31 20.62 31 23 C17.8 23 4.6 23 -9 23 C-9 20.69 -9 18.38 -9 16 C-7.35 16 -5.7 16 -4 16 C-4 14.35 -4 12.7 -4 11 C0.29 11 4.58 11 9 11 C9 8.69 9 6.38 9 4 C6.36 4 3.72 4 1 4 C0.67 2.68 0.34 1.36 0 0 Z " fill="#B1E8FF" transform="translate(12,0)"/>
<path d="M0 0 C10.89 0 21.78 0 33 0 C32 6 32 6 30.77294922 7.84350586 C26.87191007 10.3881523 21.62658704 9.55456536 17.125 9.5625 C16.03574219 9.59923828 14.94648437 9.63597656 13.82421875 9.67382812 C6.0563228 9.71661335 6.0563228 9.71661335 3.12792969 7.72998047 C0.85812566 5.14585897 0 3.4523818 0 0 Z " fill="#FEAE67" transform="translate(27,55)"/>
<path d="M0 0 C13.2 0 26.4 0 40 0 C40 2.31 40 4.62 40 7 C26.8 7 13.6 7 0 7 C0 4.69 0 2.38 0 0 Z " fill="#73B9DF" transform="translate(3,16)"/>
<path d="M0 0 C6.6 0 13.2 0 20 0 C17.70701748 3.82163753 16.25978299 5.95421026 13.1875 8.875 C10.50055948 11.47781899 8.00369729 14.11283425 5.625 17 C4.75875 17.99 3.8925 18.98 3 20 C2.34 20 1.68 20 1 20 C0.82778565 18.35473791 0.66259169 16.70874089 0.5 15.0625 C0.4071875 14.14597656 0.314375 13.22945312 0.21875 12.28515625 C-0.05336947 8.19850488 0 4.09570121 0 0 Z " fill="#E13E3B" transform="translate(7,23)"/>
<path d="M0 0 C-3 2 -3 2 -5.4375 3.3125 C-10.1712484 6.42984651 -11.90441963 9.76104907 -14 15 C0.85 14.505 0.85 14.505 16 14 C16 15.65 16 17.3 16 19 C10.09774708 19.78696706 4.53857617 20.04615894 -1.421875 19.78125 C-2.44667969 19.73613281 -3.47148438 19.69101562 -4.52734375 19.64453125 C-5.59082031 19.59683594 -6.65429688 19.54914062 -7.75 19.5 C-8.82894531 19.45230469 -9.90789063 19.40460937 -11.01953125 19.35546875 C-13.6797232 19.23776114 -16.33987648 19.11924254 -19 19 C-19 17.68 -19 16.36 -19 15 C-18.34 15 -17.68 15 -17 15 C-17 13.989375 -17 12.97875 -17 11.9375 C-16.38207465 7.26978695 -13.41571138 5.22033988 -9.91015625 2.3828125 C-6.46782758 -0.10918003 -4.21546979 -0.09164065 0 0 Z " fill="#FEBA49" transform="translate(45,31)"/>
<path d="M0 0 C11.66666667 0 23.33333333 0 35 0 C35 1.65 35 3.3 35 5 C23.45 5 11.9 5 0 5 C0 3.35 0 1.7 0 0 Z " fill="#AC5536" transform="translate(26,50)"/>
<path d="M0 0 C1.32 0 2.64 0 4 0 C5.32594359 5.96674616 5.0884587 11.92583615 5 18 C3.02 18.99 3.02 18.99 1 20 C0.29867087 13.29980211 -0.11044961 6.73742646 0 0 Z " fill="#CC3734" transform="translate(7,23)"/>
<path d="M0 0 C4.29 0 8.58 0 13 0 C13 3.63 13 7.26 13 11 C11.68 11 10.36 11 9 11 C9 8.69 9 6.38 9 4 C6.36 4 3.72 4 1 4 C0.67 2.68 0.34 1.36 0 0 Z " fill="#E6E9ED" transform="translate(12,0)"/>
<path d="M0 0 C-3 2 -3 2 -5.4375 3.3125 C-11.400642 7.23944717 -13.10964023 12.42670351 -15 19 C-16.32 19 -17.64 19 -19 19 C-19 17.68 -19 16.36 -19 15 C-18.34 15 -17.68 15 -17 15 C-17 13.989375 -17 12.97875 -17 11.9375 C-16.38207465 7.26978695 -13.41571138 5.22033988 -9.91015625 2.3828125 C-6.46782758 -0.10918003 -4.21546979 -0.09164065 0 0 Z " fill="#E69C57" transform="translate(45,31)"/>
<path d="M0 0 C10.89 0 21.78 0 33 0 C33 0.33 33 0.66 33 1 C23.43 1 13.86 1 4 1 C5.32 2.98 6.64 4.96 8 7 C8.33 7.66 8.66 8.32 9 9 C5.45529741 8.70460812 4.21784705 8.22373481 1.6875 5.625 C0 3 0 3 0 0 Z " fill="#E7965A" transform="translate(27,55)"/>
<path d="M0 0 C0.16852247 1.60397277 0.33474886 3.2081869 0.5 4.8125 C0.5928125 5.70582031 0.685625 6.59914063 0.78125 7.51953125 C1 10 1 10 1 13 C-1 14.6875 -1 14.6875 -3 16 C-4.29004296 13.41991408 -4.20410224 11.44258426 -4.25 8.5625 C-4.27578125 7.59441406 -4.3015625 6.62632813 -4.328125 5.62890625 C-4 3 -4 3 -2.546875 1.15234375 C-1 0 -1 0 0 0 Z " fill="#D1D3D6" transform="translate(13,40)"/>
<path d="M0 0 C1.65 0 3.3 0 5 0 C5 1.65 5 3.3 5 5 C13.25 5 21.5 5 30 5 C30 5.33 30 5.66 30 6 C20.1 6 10.2 6 0 6 C0 4.02 0 2.04 0 0 Z " fill="#A7E0F8" transform="translate(8,11)"/>
<path d="M0 0 C1 2 1 2 0.5 4.3125 C-1.53956022 7.96671205 -4.36488883 9.98525678 -8 12 C-8.66 12 -9.32 12 -10 12 C-8.52278578 8.54798361 -6.56205999 6.35038064 -3.875 3.75 C-3.15054688 3.04359375 -2.42609375 2.3371875 -1.6796875 1.609375 C-1.12539063 1.07828125 -0.57109375 0.5471875 0 0 Z " fill="#E24540" transform="translate(38,26)"/>
<path d="M0 0 C0.66 0 1.32 0 2 0 C2 3.3 2 6.6 2 10 C0.68 10 -0.64 10 -2 10 C-2.1953125 3.9453125 -2.1953125 3.9453125 -2 2 C-1.34 1.34 -0.68 0.68 0 0 Z " fill="#CC3733" transform="translate(12,54)"/>
<path d="M0 0 C1.65 0 3.3 0 5 0 C5 2.31 5 4.62 5 7 C3.35 7 1.7 7 0 7 C0 4.69 0 2.38 0 0 Z " fill="#69A8CB" transform="translate(3,16)"/>
<path d="M0 0 C1.32 0 2.64 0 4 0 C4 1.98 4 3.96 4 6 C2.68 6 1.36 6 0 6 C0 4.02 0 2.04 0 0 Z " fill="#9FD0E6" transform="translate(8,11)"/>
<path d="M0 0 C1.32 0 2.64 0 4 0 C4 1.65 4 3.3 4 5 C2.68 5 1.36 5 0 5 C0 3.35 0 1.7 0 0 Z " fill="#A14B31" transform="translate(26,50)"/>
</svg>
