<svg xmlns="http://www.w3.org/2000/svg" xmlns:xlink="http://www.w3.org/1999/xlink" viewBox="0,0,256,256" width="30px" height="30px"><g fill="#ffffff" fill-rule="nonzero" stroke="none" stroke-width="1" stroke-linecap="butt" stroke-linejoin="miter" stroke-miterlimit="10" stroke-dasharray="" stroke-dashoffset="0" font-family="none" font-weight="none" font-size="none" text-anchor="none" style="mix-blend-mode: normal"><path d="M64,256c-35.34622,0 -64,-28.65378 -64,-64v-128c0,-35.34622 28.65378,-64 64,-64h128c35.34622,0 64,28.65378 64,64v128c0,35.34622 -28.65378,64 -64,64z" id="shape"></path></g><g fill="#000000" fill-rule="nonzero" stroke="none" stroke-width="1" stroke-linecap="butt" stroke-linejoin="miter" stroke-miterlimit="10" stroke-dasharray="" stroke-dashoffset="0" font-family="none" font-weight="none" font-size="none" text-anchor="none" style="mix-blend-mode: normal"><g transform="scale(8.53333,8.53333)"><path d="M15,3c-6.627,0 -12,5.373 -12,12c0,5.623 3.872,10.328 9.092,11.63c-0.056,-0.162 -0.092,-0.35 -0.092,-0.583v-2.051c-0.487,0 -1.303,0 -1.508,0c-0.821,0 -1.551,-0.353 -1.905,-1.009c-0.393,-0.729 -0.461,-1.844 -1.435,-2.526c-0.289,-0.227 -0.069,-0.486 0.264,-0.451c0.615,0.174 1.125,0.596 1.605,1.222c0.478,0.627 0.703,0.769 1.596,0.769c0.433,0 1.081,-0.025 1.691,-0.121c0.328,-0.833 0.895,-1.6 1.588,-1.962c-3.996,-0.411 -5.903,-2.399 -5.903,-5.098c0,-1.162 0.495,-2.286 1.336,-3.233c-0.276,-0.94 -0.623,-2.857 0.106,-3.587c1.798,0 2.885,1.166 3.146,1.481c0.896,-0.307 1.88,-0.481 2.914,-0.481c1.036,0 2.024,0.174 2.922,0.483c0.258,-0.313 1.346,-1.483 3.148,-1.483c0.732,0.731 0.381,2.656 0.102,3.594c0.836,0.945 1.328,2.066 1.328,3.226c0,2.697 -1.904,4.684 -5.894,5.097c1.098,0.573 1.899,2.183 1.899,3.396v2.734c0,0.104 -0.023,0.179 -0.035,0.268c4.676,-1.639 8.035,-6.079 8.035,-11.315c0,-6.627 -5.373,-12 -12,-12z"></path></g></g><g fill="#000000" fill-rule="nonzero" stroke="none" stroke-width="1" stroke-linecap="butt" stroke-linejoin="miter" stroke-miterlimit="10" stroke-dasharray="" stroke-dashoffset="0" font-family="none" font-weight="none" font-size="none" text-anchor="none" style="mix-blend-mode: normal"><g><path d="M98.56,125.99v8.9c-0.82,1.18 -1.96667,2.06 -3.44,2.64c-1.47333,0.58667 -3.18667,0.88 -5.14,0.88v0c-1.98,0 -3.73667,-0.46333 -5.27,-1.39c-1.53333,-0.93333 -2.72,-2.25333 -3.56,-3.96c-0.83333,-1.71333 -1.26333,-3.69667 -1.29,-5.95v0v-2.12c0,-3.65333 0.85333,-6.48667 2.56,-8.5c1.70667,-2.01333 4.10333,-3.02 7.19,-3.02v0c2.53333,0 4.57333,0.65 6.12,1.95c1.54667,1.29333 2.49,3.12667 2.83,5.5v0h-3.2c-0.6,-3.20667 -2.51,-4.81 -5.73,-4.81v0c-2.14667,0 -3.77333,0.75333 -4.88,2.26c-1.1,1.5 -1.65667,3.68 -1.67,6.54v0v1.98c0,2.72 0.62333,4.88333 1.87,6.49c1.24,1.60667 2.92333,2.41 5.05,2.41v0c1.2,0 2.25,-0.13333 3.15,-0.4c0.9,-0.26667 1.64333,-0.71667 2.23,-1.35v0v-5.45h-5.62v-2.6zM106.76,120.04v18.03h-3.08v-18.03zM103.43,115.26v0c0,-0.5 0.15333,-0.92333 0.46,-1.27c0.30667,-0.34667 0.76,-0.52 1.36,-0.52c0.6,0 1.05333,0.17333 1.36,0.52c0.31333,0.34667 0.47,0.77 0.47,1.27c0,0.5 -0.15667,0.91667 -0.47,1.25c-0.30667,0.33333 -0.76,0.5 -1.36,0.5c-0.6,0 -1.05333,-0.16667 -1.36,-0.5c-0.30667,-0.33333 -0.46,-0.75 -0.46,-1.25zM112.8,115.67h3.08v4.37h3.37v2.38h-3.37v11.19c0,0.72 0.15,1.26 0.45,1.62c0.3,0.36 0.81,0.54 1.53,0.54v0c0.36,0 0.85,-0.06667 1.47,-0.2v0v2.5c-0.81333,0.22667 -1.60333,0.34 -2.37,0.34v0c-1.37333,0 -2.41,-0.41667 -3.11,-1.25c-0.7,-0.83333 -1.05,-2.01667 -1.05,-3.55v0v-11.19h-3.29v-2.38h3.29zM141.98,113.81v24.26h-3.22v-11.21h-12.23v11.21h-3.2v-24.26h3.2v10.43h12.23v-10.43zM158.38,138.07l-0.07,-1.78c-1.2,1.41333 -2.96,2.12 -5.28,2.12v0c-1.92,0 -3.38333,-0.56 -4.39,-1.68c-1.00667,-1.11333 -1.51667,-2.76667 -1.53,-4.96v0v-11.73h3.09v11.65c0,2.73333 1.11,4.1 3.33,4.1v0c2.35333,0 3.92,-0.87667 4.7,-2.63v0v-13.12h3.08v18.03zM181.26,128.99v0.27c0,2.75333 -0.63333,4.96667 -1.9,6.64c-1.26667,1.67333 -2.96667,2.51 -5.1,2.51v0c-2.27333,0 -4.03333,-0.80667 -5.28,-2.42v0l-0.15,2.08h-2.83v-25.6h3.08v9.55c1.24667,-1.54 2.96333,-2.31 5.15,-2.31c2.18667,0 3.90667,0.82667 5.16,2.48c1.24667,1.65333 1.87,3.92 1.87,6.8zM178.18,128.91v0c0,-2.1 -0.40667,-3.72333 -1.22,-4.87c-0.80667,-1.14667 -1.97333,-1.72 -3.5,-1.72v0c-2.03333,0 -3.49333,0.94667 -4.38,2.84v0v7.8c0.94667,1.88667 2.42,2.83 4.42,2.83v0c1.47333,0 2.62333,-0.57333 3.45,-1.72c0.82,-1.14 1.23,-2.86 1.23,-5.16z"></path></g></g></svg>